<svg width="355" height="355" viewBox="0 0 355 355" fill="none" xmlns="http://www.w3.org/2000/svg">
<path fill-rule="evenodd" clip-rule="evenodd" d="M177.175 23.9445C92.5479 23.9445 23.9444 92.548 23.9444 177.175C23.9444 261.802 92.5479 330.405 177.175 330.405C261.801 330.405 330.405 261.802 330.405 177.175C330.405 92.548 261.801 23.9445 177.175 23.9445ZM0.187744 177.175C0.187744 79.4276 79.4275 0.187866 177.175 0.187866C274.922 0.187866 354.162 79.4276 354.162 177.175C354.162 274.922 274.922 354.162 177.175 354.162C79.4275 354.162 0.187744 274.922 0.187744 177.175Z" fill="#F5BD33"/>
<path fill-rule="evenodd" clip-rule="evenodd" d="M177.175 63.1429C114.197 63.1429 63.1429 114.197 63.1429 177.175C63.1429 240.153 114.197 291.207 177.175 291.207C240.153 291.207 291.207 240.153 291.207 177.175C291.207 114.197 240.153 63.1429 177.175 63.1429ZM39.3862 177.175C39.3862 101.076 101.076 39.3863 177.175 39.3863C253.273 39.3863 314.963 101.076 314.963 177.175C314.963 253.273 253.273 314.963 177.175 314.963C101.076 314.963 39.3862 253.273 39.3862 177.175Z" fill="#F5BD33"/>
<path fill-rule="evenodd" clip-rule="evenodd" d="M177.175 107.093C138.469 107.093 107.093 138.47 107.093 177.175C107.093 215.88 138.469 247.257 177.175 247.257C215.88 247.257 247.257 215.88 247.257 177.175C247.257 138.47 215.88 107.093 177.175 107.093ZM83.3359 177.175C83.3359 125.349 125.349 83.3361 177.175 83.3361C229 83.3361 271.013 125.349 271.013 177.175C271.013 229 229 271.013 177.175 271.013C125.349 271.013 83.3359 229 83.3359 177.175Z" fill="#F5BD33"/>
<path fill-rule="evenodd" clip-rule="evenodd" d="M177.175 151.043C162.742 151.043 151.042 162.742 151.042 177.175C151.042 191.607 162.742 203.307 177.175 203.307C191.607 203.307 203.307 191.607 203.307 177.175C203.307 162.742 191.607 151.043 177.175 151.043ZM127.286 177.175C127.286 149.622 149.622 127.286 177.175 127.286C204.727 127.286 227.063 149.622 227.063 177.175C227.063 204.728 204.727 227.064 177.175 227.064C149.622 227.064 127.286 204.728 127.286 177.175Z" fill="#F5BD33"/>
</svg>
