<svg width="338" height="132" viewBox="0 0 338 132" fill="none" xmlns="http://www.w3.org/2000/svg">
<path d="M138.882 18.8963L138.375 18.0344L138.882 18.8963ZM125.398 129.63L125.58 128.647L125.398 129.63ZM3 103.345L11.203 95.218L0.0635848 92.1773L3 103.345ZM337.767 112.77C318.013 89.1325 284.378 56.0252 247.643 33.5212C210.975 11.0578 170.839 -1.06057 138.375 18.0344L139.389 19.7583C170.82 1.27092 210.036 12.8279 246.598 35.2266C283.095 57.5846 316.571 90.5259 336.233 114.053L337.767 112.77ZM138.375 18.0344C98.2394 41.6415 86.5081 68.165 89.1827 89.7691C91.8427 111.256 108.756 127.553 125.215 130.613L125.58 128.647C110.003 125.751 93.7236 110.17 91.1675 89.5234C88.626 68.9943 99.655 43.1291 139.389 19.7583L138.375 18.0344ZM125.215 130.613C137.076 132.818 147.853 125.429 155.883 113.633C163.937 101.803 169.43 85.2886 170.738 68.5387C172.045 51.7934 169.18 34.6775 160.357 21.7154C151.498 8.70107 136.716 0 114.506 0V2C136.121 2 150.253 10.4263 158.703 22.8408C167.19 35.3076 170.029 51.9222 168.744 68.383C167.459 84.8391 162.06 101.007 154.23 112.508C146.377 124.043 136.28 130.636 125.58 128.647L125.215 130.613ZM114.506 0C81.8843 0 57.1254 14.6277 39.1554 33.7236C21.2013 52.8026 9.99624 76.3648 4.4141 94.3689L6.32439 94.9612C11.8408 77.169 22.9162 53.8986 40.6119 35.0942C58.2917 16.3067 82.552 2 114.506 2V0Z" fill="#25A4AD"/>
</svg>
