<svg width="158" height="168" viewBox="0 0 158 168" fill="none" xmlns="http://www.w3.org/2000/svg">
<path fill-rule="evenodd" clip-rule="evenodd" d="M39.087 60.9229C36.0541 55.2471 34.3464 48.8354 34.3464 42.0482C34.3464 18.8256 54.3385 0 79 0V37.8573C82.3691 32.3568 87.0454 27.6377 92.91 24.2167C112.926 12.5409 139.204 20.4072 151.603 41.7868L118.791 60.9272C125.243 61.0949 131.676 62.797 137.579 66.1897C157.67 77.7363 164.016 104.493 151.754 125.952L118.913 107.077C121.946 112.753 123.654 119.165 123.654 125.952C123.654 149.174 103.662 168 79 168V130.143C75.6309 135.643 70.9546 140.362 65.09 143.783C45.0741 155.459 18.7963 147.593 6.39699 126.213L39.2093 107.073C32.7566 106.905 26.3238 105.203 20.4208 101.81C0.330487 90.2637 -6.0156 63.5074 6.24645 42.0483L39.087 60.9229ZM79.0235 83.9035C79.0156 83.8899 79.0078 83.8763 79 83.8626L79 83.9035C79.0078 83.9035 79.0157 83.9035 79.0235 83.9035ZM79 84.0965V84.1374L78.9765 84.0965L79 84.0965Z" fill="#F4ADB3"/>
</svg>
